<svg xmlns="http://www.w3.org/2000/svg" xml:space="preserve" viewBox="0 0 374 373"><path fill="#FEFEFE" d="M1 134V1.022h373.915v372.831H1zm294.458 186.643c.255-.14.454-.338 1.182-.658.85-.79 1.701-1.581 3.223-2.656 4.875-4.556 10.007-8.874 14.53-13.758 2.741-2.96 4.538-6.796 7.392-10.487 1.725-1.693 3.451-3.387 5.78-5.399 5.086-8.564 10.172-17.128 15.556-26.275.026-.433.051-.865.594-1.372.298-.341.596-.682 1.107-1.51-.002-.176-.005-.353.298-1.106.038-.432.076-.864.747-1.675 1.566-3.832 3.133-7.664 5.031-12.03.03-.622.059-1.245.434-2.42.504-1.432 1.009-2.864 1.703-4.983-.006-.472-.013-.944.405-1.923.453-1.462.906-2.924 1.568-5.083-.008-.484-.015-.968.354-2.004l1.626-6.115c.044-1.663.088-3.326.55-5.637.493-3.83.988-7.66 1.54-11.451 0 0 .06-.037.608-.558.327-9.709.727-19.415.906-29.126.028-1.528-.946-3.075-1.43-5.494-1.32-18.199-6.518-35.3-13.909-51.93-15.286-34.393-39.81-60.147-72.902-79.055-6.45-2.901-12.898-5.803-20.108-8.914-2.413-.659-4.826-1.317-7.85-2.431-4.76-1.556-9.52-3.113-14.847-5.169-8.137-1.17-16.273-2.34-25.104-3.923-11.143.186-22.287.373-34.308.428-7.71 1.417-15.42 2.833-23.886 4.184-2.025.602-4.113 1.05-6.065 1.835-8.117 3.262-16.193 6.626-25.022 9.98-8.716 5.357-17.433 10.715-26.85 16.146C74.912 60.45 62.559 71.857 52.43 86.375c-5.105 8.54-10.211 17.078-15.792 26.21-3.25 8.758-6.5 17.515-10.166 26.761-.433 1.595-.867 3.19-1.46 5.29.061.165.121.331.168.723 0 0-.214.418-.67 1.04-.504 2.866-1.007 5.733-1.742 9.213-.069 1.596-.138 3.192-.72 5.387-.381 2.943-.763 5.886-1.583 9.546-1.164 11.53-1.81 23.055.323 35 0 0 .193.44.038 1.322.942 5.904 1.59 11.873 2.878 17.7 5.942 26.906 17.968 50.907 35.622 71.976 5.294 6.318 11.687 11.714 17.621 17.472 0 0-.01.075.147.64.615.443 1.23.887 1.859 1.398 0 0 .069.008.222.534.608.37 1.216.74 2.22 1.687 11.737 9.74 24.21 18.282 39.073 24.273 3.734 1.566 7.375 3.436 11.224 4.634 6.997 2.178 14.118 3.958 21.741 6.475 6.71.986 13.401 2.602 20.137 2.817 11.177.359 22.382-.183 34.463-.223 9.007-1.717 18.014-3.433 27.805-5.219 11.054-4.406 22.107-8.811 33.848-13.255 1.153-.617 2.38-1.13 3.447-1.87 5.475-3.806 10.91-7.67 16.919-11.37.312-.197.623-.394 1.558-.653.494-.593.99-1.186 1.464-1.877 0 0-.01.1.592.075.407-.365.814-.73 1.409-1.128 0 0-.023-.188.382-.31"/><path fill="#018DFF" d="M20.982 205.986s-.193-.44-.097-1.12c.136-3.087.177-5.494.364-7.985.201-.182.325-.329.296-.37-.12-.175-.286-.318-.468-.943-.003-7.834.025-15.199.397-22.605 3.446-1.546 4.198.55 4.476 2.854.404 3.344 2.028 5 5.383 5.947 6.767 1.911 9.794 6.728 10.825 13.711.526 3.563 2.3 7.127 4.216 10.258 3.18 5.197 7.136 9.914 10.375 15.078 2.853 4.548 5.105 9.469 7.751 14.152 1.641 2.905 3.089 6.125 5.425 8.37 2.103 2.02 2.86 3.846 3.258 6.67.475 3.385 2.099 6.684 3.647 9.811.878 1.775 2.703 3.056 3.924 4.692 4.917 6.589 9.769 13.226 14.634 19.853 1.536 2.092 4.01 4.057 4.371 6.346 1.002 6.362 3.502 11.528 8.196 16 2.195 2.09 3.517 5.212 4.879 8.039 2.766 5.742 5.953 10.93 12.362 13.33.855.32 1.513 1.914 1.735 3.024.45 2.245.538 4.563.815 7.24l-7.787 3.715c-14.352-5.497-26.826-14.04-38.817-24.357-.876-.93-1.498-1.282-2.12-1.635 0 0-.068-.008-.1-.365-.681-.773-1.333-1.19-1.984-1.606 0 0 .01-.075-.017-.424-.325-5.239-.663-10.128-.908-15.022-.174-3.496 1.162-7.72-4.581-8.192-.574-.047-1.31-1.477-1.493-2.363-1.38-6.696-3.372-13.382-3.693-20.14-.23-4.845-1.827-7.02-6.198-7.78-5.374-.932-8.496-3.816-10.397-9.207-1.759-4.987-4.308-10.36-8.117-13.764-3.486-3.114-5.18-5.203-3.908-9.868 1.742-6.4-.001-8.86-5.892-11.666-1.872-.891-3.013-3.226-4.655-4.717-1.938-1.758-4.057-3.316-6.097-4.961m101.22 129.622.012-1.181c-.163-.002-.468-.014-.47-.003-.03.391-.031.785.458 1.184m-36.769-18.904.816.856c.118-.113.345-.318.339-.326-.254-.3-.53-.583-1.155-.53"/><path fill="#0192FF" d="M25.194 145.133c-.06-.166-.12-.332.275-.853.827-.997 1.197-1.64 1.927-2.353 1.96-3.092 3.107-6.147 7.918-4.405 8.018 2.903 13.272 9.316 13.74 17.708.097 1.741.587 3.604 1.416 5.128 1.32 2.429 2.97 4.704 4.673 6.893 3.31 4.255 6.838 8.341 10.102 12.63 1.46 1.917 3.23 4.032 3.604 6.267 1.302 7.775 1.43 7.984 9.448 8.963 1.594.194 3.953 1.552 4.326 2.845.95 3.288 1.377 6.853 1.292 10.29-.21 8.502-.372 8.498 7.796 10.549.3 3.153.047 7.025 5.24 6.56.678 1.112 1.325 1.878 2.099 2.85.127.205.142.689-.155.901-.753 1.548-1.21 2.884-1.266 3.05 7.648 10.425 11.542 21.43 16.15 32.154-5.558 1.76-4.043 6.284-4.711 10.216-1.665 2.737-3.286 5.131-5.212 7.334-1.798-1.591-3.412-2.884-4.753-4.416-1.485-1.697-2.628-3.691-4.088-5.413-1.692-1.996-4.165-3.55-5.245-5.8-2.843-5.927-5.541-11.997-7.452-18.268-1.141-3.743-2.508-6.296-6.457-7.201-.993-.228-2.278-1.116-2.604-2.004-2.208-6.012-4.145-12.122-6.287-18.159-.522-1.47-1.223-3.042-2.292-4.12-2.91-2.934-6.127-5.563-9.102-8.436-3.85-3.718-5.947-8.03-5.677-13.697.378-7.956-4.13-13.539-11.899-15.845-1.903-.565-3.928-.862-5.686-1.716-.967-.47-1.774-1.767-2.075-2.85-.113-.41 1.497-1.19 2.16-1.944 1.256-1.43 3.182-2.894 3.322-4.476.104-1.179-1.963-2.94-3.442-3.752-1.343-.738-3.28-.306-4.805-.828-1.724-.59-3.282-1.668-4.912-2.534.07-1.597.138-3.193.675-5.154 1.567-2.658 2.665-4.953 3.755-7.638-.605-1.086-1.201-1.78-1.798-2.476"/><path fill="#02D7FF" d="M273 38.281c32.444 18.565 56.967 44.32 72.253 78.713 7.39 16.63 12.59 33.73 13.817 52.85-.128 10.334-.166 19.748-.577 29.063-.893-3.4-1.918-6.716-1.826-10 .167-5.989-.511-11.127-6.725-14.065-1.654-.782-3.306-2.532-3.986-4.228-1.933-4.819-3.626-9.772-4.913-14.8-1.12-4.371-1.791-8.11-7.861-8.175-3.232-.034-7.492-1.065-8.168-5.853-.645-4.566-2.192-9.213-1.765-13.674.608-6.365-3.33-8.816-7.205-12.317-3.92-3.543-7.703-7.917-9.719-12.698-1.976-4.687-1.46-10.38-2.434-15.557-.363-1.937-1.378-4.343-2.888-5.371-6.896-4.694-8.43-13.315-14.22-18.747-.43-.404-.36-1.3-.732-1.816-1.24-1.72-2.254-3.866-3.933-4.955-4.628-3-6.502-8.264-4.619-10.674z"/><path fill="#02A7FE" d="M52.978 85.99c9.58-14.133 21.934-25.539 35.747-35.592 1.702.583 3.005.781 4.27 1.12 1.268.34 3.318.507 3.614 1.286 2.319 6.093 4.19 12.356 6.436 18.479.878 2.392 1.801 5.392 3.685 6.67 4.793 3.252 5.366 8.362 7.43 12.961 1.509 3.357 4.625 5.97 6.885 9.019 1.35 1.82 2.433 3.837 4.26 6.767h-6.092c-.33 4.705 3.208 2.774 5.036 3.78-.78 1.453-1.393 2.61-2.171 3.64-7.025 9.304-14.08 18.585-21.506 27.874-7.765-1.478.293-4.329-1.475-6.939-7.015-3.31-10.838-9.82-13.31-17.722-1.143-3.658-4.095-6.729-6.075-10.153-2.694-4.66-5.586-9.25-7.76-14.151-2.3-5.185-3.857-10.7-5.542-15.51-4.002 3.297-7.589 6.318-11.29 9.19-.33.256-1.41-.456-2.142-.719"/><path fill="#0291FE" d="M22.306 160.7c1.886.567 3.444 1.645 5.168 2.235 1.526.522 3.462.09 4.805.828 1.48.812 3.546 2.573 3.442 3.752-.14 1.582-2.066 3.046-3.322 4.476-.663.754-2.273 1.534-2.16 1.943.3 1.084 1.108 2.381 2.075 2.85 1.758.855 3.783 1.152 5.686 1.717 7.768 2.306 12.277 7.889 11.899 15.845-.27 5.667 1.826 9.979 5.677 13.697 2.975 2.873 6.191 5.502 9.102 8.436 1.069 1.078 1.77 2.65 2.292 4.12 2.142 6.037 4.079 12.147 6.287 18.159.326.888 1.611 1.776 2.604 2.004 3.949.905 5.316 3.458 6.457 7.201 1.91 6.27 4.61 12.341 7.452 18.268 1.08 2.25 3.553 3.804 5.245 5.8 1.46 1.722 2.603 3.716 4.088 5.413 1.341 1.532 2.955 2.825 4.625 4.676-.158.92-.493 1.387-1.138 2.084-.851 4.385 2.38 2.785 4.037 2.8 21.458.195 42.917.25 64.022.547-17.915.351-35.475.494-53.035.636l-.009 1.406 5.798.76c1.983 8.725 7.835 14.39 14.384 19.65 1.673 1.342 2.79 3.504 3.852 5.459 3.75 6.904 7.886 13.64 9.454 21.53.194.978 1.363 1.847 2.231 2.59 4.655 3.98 4.493 9.588-.444 13.503-7.07-1.946-14.19-3.726-21.187-5.904-3.85-1.198-7.49-3.068-11.479-4.881 2.394-1.51 5.044-2.775 7.532-3.962-.277-2.677-.365-4.995-.815-7.24-.222-1.11-.88-2.704-1.735-3.024-6.41-2.4-9.596-7.588-12.362-13.33-1.362-2.827-2.684-5.949-4.88-8.04-4.693-4.471-7.193-9.637-8.195-16-.36-2.288-2.835-4.253-4.37-6.345-4.866-6.627-9.718-13.264-14.635-19.853-1.22-1.636-3.046-2.917-3.924-4.692-1.548-3.127-3.172-6.426-3.647-9.81-.397-2.825-1.155-4.652-3.258-6.671-2.336-2.245-3.784-5.465-5.425-8.37-2.646-4.683-4.898-9.604-7.751-14.152-3.24-5.164-7.195-9.881-10.375-15.078-1.916-3.131-3.69-6.695-4.216-10.258-1.031-6.983-4.058-11.8-10.825-13.71-3.355-.949-4.979-2.604-5.383-5.948-.278-2.303-1.03-4.4-4.521-3.25-.435-1.15-.48-1.944-.525-2.74.382-2.942.764-5.885 1.402-9.127m6.552 9.81-1.28-.91-.342 1.346c.5.054 1 .107 1.622-.436"/><path fill="#029EFF" d="M52.705 86.183c1.005.07 2.085.782 2.414.526 3.702-2.872 7.29-5.893 11.291-9.19 1.685 4.81 3.242 10.325 5.542 15.51 2.174 4.9 5.066 9.492 7.76 14.15 1.98 3.425 4.932 6.496 6.076 10.154 2.47 7.901 6.294 14.412 13.309 17.722 1.768 2.61-6.29 5.46 1.457 7.215.285.441.208.608-.022.88-.338.277-.466.486-.677 1.07-8.257 16.598-8.831 34.158-9.43 51.77-3.894-.293-3.38-2.927-3.421-5.213-.107-5.901-.985-11.44-5.46-15.941-7.093-7.134-14.842-14.048-12.706-25.777.026-.145-.04-.371-.147-.467-5.105-4.57-8.743-9.98-11.772-16.245-1.42-2.936-3.74-5.273-4.02-8.987-.723-9.585-6.804-13.808-15.785-11.367 5.106-8.54 10.212-17.079 15.59-25.81m-9.4 22.466 1.044-2.134-1.311-.263c-.126.764-.252 1.528.266 2.397"/><path fill="#02CBFE" d="M350.566 244.25c-1.566 3.833-3.133 7.665-5.33 11.448-.495-2.114-.787-4.329-.127-6.21 1.055-3.008.555-5.013-1.448-7.628-1.95-2.547-3.068-6.089-3.51-9.335-.489-3.6-1.608-5.765-5.425-5.492-4.523.323-6.126-2.175-6.737-6.147-.87-5.662-2.98-10.579-7.179-14.896-2.44-2.509-3.429-6.528-4.767-9.985-1.523-3.936-2.095-8.365-4.195-11.92-2.662-4.508-6.3-8.48-9.785-12.45-4.395-5.008-7.611-4.788-12.475.296-.889-2.059-1.456-3.986-2.047-5.906-2.114-6.874-3.255-14.272-6.59-20.491-4.81-8.968-11.218-17.08-16.909-25.906 1.284-2.46 2.535-4.57 4-7.044-1.25-1.108-2.553-3.191-3.647-3.086-7.786.746-5.728-4.627-5.732-9.026-5.272-1.65-6.042-5.828-5.687-10.684.267-3.665.599-7.412-4.043-9.026-.737-.256-1.274-1.495-1.622-2.389-2.09-5.371-3.576-11.06-6.304-16.076-2.073-3.812-5.719-6.76-8.61-10.14-1.538-1.799-3.048-3.636-4.401-5.574-.835-1.195-1.184-2.733-2.037-3.911-4.258-5.886-8.61-11.704-12.597-17.096-3.525-2.529-6.937-4.976-9.996-7.47.825-.096 1.298-.145 1.77-.194 8.137 1.171 16.273 2.342 24.304 3.797-.836 1.13-1.566 1.977-2.297 2.824 1.32.815 2.58 2.187 3.973 2.338 3.771.41 5.157 2.605 3.085 5.294-3.344 4.341-1.135 6.692 1.867 9.492 1.92 1.79 3.218 4.25 5.147 6.028 7.947 7.328 6.881 20.133 16.248 26.592.504.347.28 1.613.636 2.332 2.694 5.44 5.239 10.97 8.246 16.233 2.583 4.522 5.89 8.628 8.513 13.13.928 1.59 1.477 4.006.99 5.699-1.24 4.32.564 7.885 3.104 10.418 3.565 3.554 4.791 7.774 6 12.252.32 1.184 1.068 3.162 1.717 3.202 4.746.293 5.7 3.743 6.86 7.29.32.977 1.323 2.116 2.267 2.443 6.222 2.158 8.557 7.12 10.485 12.897 2.467 7.389 5.441 14.615 12.466 19.255 1.496.988 2.626 3.1 3.13 4.916 1.894 6.82 3.254 13.79 5.266 20.57.629 2.12 2.295 4.758 4.159 5.524 5.092 2.092 7.876 5.717 9.678 10.626.436 1.187 1.675 2.49 2.845 2.918 3.208 1.174 3.936 3.418 4.27 6.533.493 4.614 1.616 9.16 2.47 13.735M217.614 24.03l1.121 3.815 1.812-.3v-4.836c-.83.26-1.66.52-2.933 1.321"/><path fill="#0399FE" d="M153.157 353.37c4.66-4.2 4.822-9.808.167-13.789-.868-.742-2.037-1.611-2.23-2.588-1.569-7.89-5.705-14.627-9.455-21.531-1.062-1.955-2.179-4.117-3.852-5.46-6.549-5.258-12.401-10.924-14.384-19.649l-5.798-.76.01-1.406c17.56-.142 35.12-.285 53.387-.723 1.789-.015 2.871.267 3.599.587-2.664 1.27-5.113 2.306-7.22 3.82-1.026.735-2.234 2.66-1.92 3.527.74 2.041 2.226 3.863 3.618 5.607 3.7 4.633 7.819 8.968 11.116 13.863 1.246 1.85.776 4.905.934 7.42.146 2.33-.774 5.212.287 6.903 2.703 4.313 6.232 8.113 9.465 12.09 3.633 4.468 7.304 8.905 10.958 13.356l-1.091 1.143 6.399.348c-11.194.162-22.4.704-33.576.345-6.736-.215-13.426-1.83-20.414-3.102"/><path fill="#01A2FF" d="M207.59 356.189c-2.576-.177-4.71-.293-6.842-.409l1.091-1.143c-3.654-4.451-7.325-8.888-10.958-13.356-3.233-3.977-6.762-7.777-9.465-12.09-1.06-1.691-.14-4.573-.287-6.903-.158-2.515.312-5.57-.934-7.42-3.297-4.895-7.416-9.23-11.116-13.863-1.392-1.744-2.879-3.566-3.618-5.607-.314-.866.894-2.792 1.92-3.528 2.107-1.513 4.556-2.55 7.693-3.813 6.215-.04 11.606.062 16.987-.134 1.362-.05 2.689-1.05 4.445-1.703a69 69 0 0 1 5.928-.186c3.123-.02 5.804-.12 8.503.177-1.61 1.86-3.117 3.505-4.91 4.73-1.4.958-3.157 1.396-4.755 2.064.893 1.481 1.717 3.01 2.703 4.426.562.807 1.373 1.446 2.096 2.135 4.954 4.726 9.858 9.396 10.385 16.948.11 1.572 1.487 3.807 2.856 4.397 3.802 1.636 4.228 4.566 3.631 7.79-1.514 8.178 5.814 11.378 10.034 14.735 3.824 3.042 4.55 4.14 2.077 7.665-9.006 1.716-18.013 3.432-27.464 5.088"/><path fill="#01D2FF" d="M272.676 38.11c1.722 2.56 3.118 4.95 4.823 7.867-1.883 2.41-.009 7.675 4.619 10.674 1.68 1.089 2.694 3.235 3.933 4.955.372.516.302 1.412.733 1.816 5.789 5.432 7.323 14.053 14.219 18.747 1.51 1.028 2.525 3.434 2.888 5.371.973 5.177.458 10.87 2.434 15.557 2.016 4.78 5.799 9.155 9.72 12.698 3.873 3.5 7.812 5.952 7.204 12.317-.427 4.461 1.12 9.108 1.765 13.674.676 4.788 4.936 5.82 8.168 5.853 6.07.064 6.742 3.804 7.86 8.175 1.288 5.028 2.98 9.981 4.914 14.8.68 1.696 2.332 3.446 3.986 4.228 6.214 2.938 6.892 8.076 6.725 14.065-.092 3.284.933 6.6 1.853 10.423.473 1.925.546 3.33.618 4.734 0 0-.06.037-.465.071-.788 4.045-1.17 8.055-1.554 12.065-.043 1.663-.087 3.326-.512 5.42-.795.748-1.21 1.065-1.909 1.103-.422-7.152-.606-14.026-.675-20.9-.025-2.526-.356-4.172-3.42-5.076-2.175-.643-4.133-2.929-5.594-4.918-4.362-5.944-8.632-11.976-12.556-18.214-3.554-5.648-6.61-11.61-9.88-17.437-1.74-3.099-3.398-6.246-5.218-9.296-2.266-3.796-5.403-7.254-6.84-11.325-2.612-7.4-5.636-14.18-11.155-20.095-2.883-3.09-3.953-8.065-5.282-12.362-1.676-5.419-3.13-10.732-7.318-15.009-6.814-6.958-14.072-13.645-12.99-25.037.285-3-1.504-6.895-3.605-9.253-2.744-3.08-4.562-5.954-4.213-10.116.093-1.097-.387-2.242-.604-3.364l-1.288-.032-2.155 6.487c-1.862-1.778-4.176-2.928-4.395-4.392-.706-4.72-.059-9.746-4.507-13.15 6.45 2.901 12.899 5.803 19.673 8.876"/><path fill="#01CEFF" d="M350.732 243.984c-1.021-4.309-2.144-8.855-2.638-13.469-.333-3.115-1.06-5.359-4.269-6.533-1.17-.428-2.409-1.731-2.845-2.918-1.802-4.909-4.586-8.534-9.678-10.626-1.864-.766-3.53-3.405-4.16-5.524-2.011-6.78-3.371-13.75-5.265-20.57-.504-1.815-1.634-3.928-3.13-4.916-7.025-4.64-10-11.866-12.466-19.255-1.928-5.777-4.263-10.74-10.485-12.897-.944-.327-1.947-1.466-2.267-2.443-1.16-3.547-2.114-6.997-6.86-7.29-.649-.04-1.397-2.018-1.717-3.202-1.209-4.478-2.435-8.698-6-12.252-2.54-2.533-4.344-6.098-3.103-10.418.486-1.693-.063-4.108-.99-5.7-2.624-4.5-5.93-8.607-8.514-13.129-3.007-5.264-5.552-10.793-8.246-16.233-.355-.72-.132-1.985-.636-2.332-9.367-6.459-8.301-19.264-16.248-26.592-1.929-1.778-3.228-4.237-5.147-6.028-3.002-2.8-5.21-5.151-1.867-9.492 2.072-2.69.686-4.884-3.085-5.294-1.393-.151-2.652-1.523-3.973-2.338.73-.847 1.461-1.693 2.58-2.574 5.15 1.521 9.91 3.078 14.974 5.315-.905 9.85 3.183 17 8.719 23.781 2.001 2.453 3.14 5.614 4.643 8.468 3.208 6.09 6.068 12.394 9.699 18.22 2.753 4.417 6.412 8.284 9.794 12.29 2.068 2.45 4.403 4.671 6.562 7.046 1.999 2.198 5.01 4.199 5.631 6.758.973 4.011.205 8.424.402 12.655.056 1.2.722 2.485 1.422 3.519 2.402 3.552 5.076 6.924 7.403 10.523 3.941 6.095 7.822 12.236 11.497 18.494 4.5 7.66 8.763 15.461 13.129 23.202 2.096 3.719 3.594 7.992 6.416 11.039 5.529 5.969 7.76 13.444 9.706 20.72 2.19 8.193 4.993 11.232 12.435 9.631.26 3.334.595 6.69.746 10.053.05 1.11-.492 2.234-.55 3.363-.175 3.318-.243 6.641-.497 10.294-.386 1.727-.627 3.124-.868 4.52-.03.622-.058 1.245-.254 2.134"/><path fill="#02AAFF" d="M235.447 351.066c2.08-3.49 1.354-4.588-2.47-7.63-4.22-3.357-11.548-6.557-10.034-14.736.597-3.223.171-6.153-3.63-7.79-1.37-.59-2.747-2.824-2.857-4.396-.527-7.552-5.431-12.222-10.385-16.948-.723-.69-1.534-1.328-2.096-2.135-.986-1.416-1.81-2.945-2.703-4.426 1.598-.668 3.354-1.106 4.755-2.064 1.793-1.225 3.3-2.87 4.923-5.005.033-1.041.072-1.41.5-1.853 4.212-1.065 8.036-2.058 12.23-2.995 3.693-.329 7.174-.228 10.299-1.232 3.188-1.024 4.686-.755 5.131 2.76.475 3.743.241 7.996 1.997 11.066 3.475 6.077 7.544 12.051 12.45 16.992 3.445 3.47 6.32 6.749 8.077 11.354 2.065 5.411 4.877 10.537 7.365 15.786-11.053 4.406-22.106 8.811-33.552 13.252"/><path fill="#02B1FF" d="M124.34 110.125c-1.92-.651-5.458 1.28-5.127-3.425h6.093c-1.828-2.93-2.91-4.948-4.26-6.767-2.261-3.048-5.377-5.662-6.885-9.019-2.065-4.599-2.638-9.709-7.431-12.961-1.884-1.278-2.807-4.278-3.685-6.67-2.247-6.123-4.117-12.386-6.436-18.479-.296-.78-2.346-.947-3.614-1.286-1.265-.339-2.568-.537-3.919-1.157a443 443 0 0 1 26.82-16.41c1.977.75 3.445 1.251 4.422 2.239 5.207 5.258 12.598 9.075 12.084 18.23-.058 1.043 1.29 2.2 2.061 3.248 3.78 5.138 7.606 10.241 11.343 15.41.33.456.018 1.33.213 1.944.681 2.139 1.032 4.546 2.277 6.31 3.022 4.282 6.605 8.236 1.758 13.469-.172.185-.05.644-.413 1.108a973 973 0 0 0-13.167 7.31c-2.799 1.584-5.567 3.221-8.717 4.82-1.145.422-1.92.857-2.719 1.495-.17.468-.395.597-.698.591"/><path fill="#02B8FF" d="M149.99 95.776c.015-.331-.108-.79.064-.975 4.847-5.233 1.264-9.187-1.758-13.47-1.245-1.763-1.596-4.17-2.277-6.31-.195-.613.118-1.487-.213-1.944-3.737-5.168-7.564-10.271-11.343-15.409-.771-1.048-2.12-2.205-2.06-3.248.513-9.155-6.878-12.972-12.085-18.23-.977-.988-2.445-1.49-4.053-2.253a918 918 0 0 1 23.918-9.989c1.952-.785 4.04-1.233 6.522-1.447 1.07 2.016 1.659 3.653 2.302 5.27.832 2.088 1.454 4.319 2.632 6.196 1.274 2.03 3.094 3.717 4.66 5.566 3.698 4.366 6.91 9.307 11.229 12.931 3.459 2.903 5.472 6.068 6.42 10.194.917 3.985 1.837 7.64 4.82 11.036 2.936 3.343 4.226 8.133 6.101 12.518-.698.661-1.259 1.092-2.227 1.577-4.818-1.911-8.49.32-12.497 1.789-6.591 2.414-13.424 4.166-20.155 6.198"/><path fill="#01BFFF" d="M185.006 85.981c-2.012-4.154-3.302-8.944-6.238-12.287-2.983-3.397-3.903-7.05-4.82-11.036-.948-4.126-2.961-7.29-6.42-10.194-4.32-3.624-7.531-8.565-11.229-12.93-1.566-1.85-3.386-3.536-4.66-5.567-1.178-1.877-1.8-4.108-2.632-6.197-.643-1.616-1.233-3.253-1.925-5.237 7.632-1.771 15.342-3.187 23.542-4.199 3.27 2.893 5.732 5.973 8.926 7.691 2.906 1.563 3.826 3.472 4.53 6.38 1.53 6.312 3.47 12.468 9.671 16.163 1.422.846 2.191 2.825 3.193 4.329 2.93 4.394 5.893 8.768 8.71 13.234 1.858 2.945 4.553 5.91 4.924 9.094.392 3.372-.292 6.715 2.093 9.708.283.355-1.07 2.013-2.104 3.063-2.766-.015-5.092-.027-7.815.019-1.192-.017-1.987-.091-3.056-.422-5.08-.708-9.885-1.16-14.69-1.612"/><path fill="#02B2FF" d="M269.343 337.795c-2.832-5.23-5.644-10.356-7.709-15.767-1.757-4.605-4.632-7.885-8.077-11.354-4.906-4.94-8.975-10.915-12.45-16.992-1.756-3.07-1.522-7.323-1.997-11.066-.445-3.515-1.943-3.784-5.131-2.76-3.125 1.004-6.606.903-10.11.95 11.777-4.429 22.29-11.051 32.495-18.758 1.134 1.076 2.199 1.982 2.662 3.131 2.206 5.48 5.332 10.033 10.118 13.801 2.408 1.896 4.736 5.807 4.597 8.687-.52 10.855 5.534 17.818 12.913 24.002 3.442 2.884 4.898 5.225 1.501 8.862-1.972 2.111-.847 3.176 1.337 3.863-5.449 3.843-10.883 7.706-16.358 11.511-1.067.742-2.294 1.254-3.791 1.89"/><path fill="#01D0FF" d="M351.999 236.998c.11-3.321.177-6.644.351-9.962.06-1.129.602-2.253.551-3.363-.151-3.364-.485-6.719-.746-10.053-7.442 1.601-10.245-1.438-12.435-9.631-1.945-7.276-4.177-14.751-9.706-20.72-2.822-3.047-4.32-7.32-6.416-11.039-4.366-7.74-8.629-15.541-13.129-23.202-3.675-6.258-7.556-12.4-11.497-18.494-2.327-3.599-5-6.971-7.403-10.523-.7-1.034-1.366-2.32-1.422-3.519-.197-4.231.57-8.644-.402-12.655-.62-2.56-3.632-4.56-5.631-6.758-2.16-2.375-4.494-4.597-6.562-7.046-3.382-4.006-7.041-7.873-9.794-12.29-3.631-5.826-6.491-12.13-9.699-18.22-1.503-2.854-2.642-6.016-4.643-8.468-5.536-6.781-9.624-13.931-8.414-23.553 2.415.205 4.828.863 7.621 1.627 4.828 3.51 4.18 8.535 4.887 13.255.22 1.464 2.533 2.614 4.395 4.392l2.155-6.487 1.288.032c.217 1.122.697 2.267.604 3.364-.35 4.162 1.47 7.037 4.213 10.116 2.101 2.358 3.89 6.252 3.605 9.253-1.082 11.392 6.176 18.08 12.99 25.037 4.188 4.277 5.642 9.59 7.318 15.009 1.33 4.297 2.4 9.272 5.282 12.362 5.519 5.914 8.543 12.694 11.155 20.095 1.437 4.071 4.574 7.529 6.84 11.325 1.82 3.05 3.478 6.197 5.217 9.296 3.27 5.827 6.327 11.789 9.88 17.437 3.925 6.238 8.195 12.27 12.557 18.214 1.46 1.99 3.419 4.275 5.595 4.918 3.063.904 3.394 2.55 3.42 5.076.068 6.874.252 13.748.68 21.307.287 2.032.284 3.379.281 4.726.008.484.015.968-.432 1.886-.815 2.008-1.176 3.582-1.537 5.155.006.473.013.945-.288 1.76-.306.342-.73.341-.73.341"/><path fill="#0197FE" d="M36.876 112.29c9.22-2.738 15.3 1.485 16.023 11.07.28 3.714 2.6 6.051 4.02 8.987 3.029 6.265 6.667 11.675 11.772 16.245.106.096.173.322.147.467-2.136 11.729 5.613 18.643 12.706 25.777 4.475 4.5 5.353 10.04 5.46 15.941.042 2.286-.473 4.92 3.513 5.646 2.517 9.412 4.55 18.38 6.539 27.657-.075.516-.106.721-.137.927-5.161.813-4.907-3.06-5.208-6.212-8.168-2.05-8.006-2.047-7.796-10.549.085-3.437-.342-7.002-1.292-10.29-.373-1.293-2.732-2.65-4.326-2.845-8.017-.979-8.146-1.188-9.448-8.963-.374-2.235-2.144-4.35-3.604-6.268-3.264-4.288-6.792-8.374-10.102-12.629-1.703-2.19-3.352-4.464-4.673-6.893-.829-1.524-1.32-3.387-1.416-5.128-.468-8.392-5.722-14.805-13.74-17.708-4.81-1.742-5.958 1.313-7.93 4.011-.413-1.107-.454-1.891-.495-2.675 3.25-8.758 6.5-17.515 9.987-26.569"/><path fill="#048AFD" d="M20.904 206.426c2.118 1.205 4.237 2.763 6.175 4.521 1.642 1.49 2.783 3.826 4.655 4.717 5.89 2.806 7.634 5.267 5.892 11.666-1.271 4.665.422 6.754 3.908 9.868 3.809 3.403 6.358 8.777 8.117 13.764 1.901 5.391 5.023 8.275 10.397 9.208 4.37.759 5.969 2.934 6.198 7.778.32 6.76 2.313 13.445 3.693 20.14.183.887.92 2.317 1.493 2.364 5.743.472 4.407 4.696 4.581 8.192.245 4.894.583 9.783.885 15.053-5.884-5.44-12.277-10.836-17.571-17.154-17.654-21.07-29.68-45.07-35.622-71.975-1.287-5.828-1.936-11.797-2.8-18.142"/><path fill="#01B9FF" d="M289.772 324.464c-2.464-.757-3.589-1.822-1.617-3.933 3.397-3.637 1.941-5.978-1.501-8.862-7.38-6.184-13.433-13.147-12.913-24.002.139-2.88-2.189-6.79-4.597-8.687-4.786-3.768-7.912-8.321-10.118-13.801-.463-1.149-1.528-2.055-2.619-3.478 1.92-2.272 4.142-4.14 6.448-5.684 3.24 2.722 2.98-.795 4.163-1.959 1.439-1.416 3.1-3.687 4.628-3.658 1.9.037 3.905 1.874 5.597 3.26 1.36 1.113 2.163 3.713 3.486 3.922 5.836.922 7.395 5.5 9.466 9.81 1.642 3.418 3.224 6.883 5.144 10.143 2.033 3.452 4.397 6.712 6.688 10.007 1.279 1.84 2.425 3.923 4.123 5.284 2.74 2.197 3.087 10.585.834 13.299-2.942 3.543-5.226 7.633-7.793 11.488-.85.79-1.7 1.582-3.05 2.464-.767.22-.963.418-1.088.688 0 0 .023.188-.36.235-.798.4-1.213.753-1.629 1.106 0 0 .011-.1-.304-.048-.801.663-1.287 1.275-1.772 1.887-.312.197-.623.394-1.216.52"/><path fill="#03C5FE" d="M211.007 88c.595-1.054 1.947-2.712 1.664-3.067-2.385-2.993-1.7-6.336-2.093-9.708-.371-3.184-3.066-6.15-4.924-9.094-2.817-4.466-5.78-8.84-8.71-13.234-1.002-1.504-1.771-3.483-3.193-4.33-6.201-3.694-8.14-9.85-9.67-16.163-.705-2.907-1.625-4.816-4.53-6.379-3.195-1.718-5.656-4.798-8.488-7.625 11.092-.526 22.236-.713 33.726-.693-.125.254-.598.303-1.828.349-2.286-.003-3.814-.003-4.306-.003l-.559 10.895c3.847 3.541 7.887 8.052 11.21 13.763 4.99 8.579 12.325 15.779 18.49 23.7 1.464 1.88 2.891 4.204 3.209 6.48.766 5.5 3.333 8.569 8.96 9.394 1.444.211 3.64 2.037 3.72 3.237.12 1.83-.914 4.105-2.186 5.55-1.22 1.388-3.4 1.906-5.093 2.916-.874.52-1.606 1.28-2.712 2.04a450 450 0 0 1-21.838-6.417c-.36-.693-.604-1.152-.849-1.611"/><path fill="#01C9FF" d="M289.899 172.066c4.553-5.22 7.77-5.439 12.164-.43 3.484 3.969 7.123 7.941 9.785 12.448 2.1 3.556 2.672 7.985 4.195 11.92 1.338 3.458 2.327 7.477 4.767 9.986 4.199 4.317 6.309 9.234 7.18 14.896.61 3.972 2.213 6.47 6.736 6.147 3.817-.273 4.936 1.892 5.426 5.492.441 3.246 1.56 6.788 3.509 9.335 2.003 2.615 2.503 4.62 1.448 7.629-.66 1.88-.368 4.095-.19 6.398.277.671.239 1.103-.22 1.846-.84.605-1.257.899-2.063 1.172-3.45-.66-6.495-1.407-9.58-1.902-2.676-.43-3.825-1.573-4.204-4.493-.413-3.17-1.7-6.33-3.124-9.242-2.51-5.135-6.629-9.788-7.913-15.16-3.231-13.511-12.961-22.47-21.071-32.57-1.11-1.382-4.335-1.068-6.65-2.001-.11-7.464-.153-14.467-.195-21.47"/><path fill="#02C2FF" d="M326.962 288.004c-1.726 1.693-3.452 3.387-5.536 4.77-.61-7.793-5.966-12.754-9.73-18.344-3.632-5.392-8.084-10.115-7.794-17.25.055-1.375-.724-2.9-1.443-4.17-3.422-6.048-7.753-11.01-15.071-12.43-1.159-.226-2.71-1.046-3.125-2.005-1.379-3.181-2.322-6.551-3.416-10.218 2.03-5.709 4.043-11.048 6.085-15.995.062 2.458.443 3.116 3.124 3.39 3.336.341 6.954-4.165 9.68.046 1.927 2.977 2.905 6.58 4.211 9.94.477 1.227.553 2.608 1.03 3.833.895 2.297 1.724 4.666 2.979 6.767 3.653 6.114 7.49 12.119 11.281 18.15 3.223 5.128 6.48 10.233 10.09 15.926.324-.443.033.136-.416.541-3.515 3.178-5.152 12.481-2.879 16.774.106.2.61.188.93.275"/><path fill="#02BEFE" d="M280.831 228.726c1.11 3.298 2.053 6.668 3.432 9.849.416.959 1.966 1.78 3.125 2.004 7.318 1.421 11.649 6.383 15.07 12.43.72 1.272 1.5 2.796 1.444 4.171-.29 7.135 4.162 11.858 7.794 17.25 3.764 5.59 9.12 10.55 9.414 18.467-2.179 3.878-3.976 7.713-6.718 10.674-4.522 4.884-9.654 9.202-14.865 13.9 2.231-3.713 4.515-7.803 7.457-11.346 2.253-2.714 1.906-11.102-.834-13.299-1.698-1.36-2.844-3.445-4.123-5.284-2.29-3.295-4.655-6.555-6.688-10.007-1.92-3.26-3.502-6.725-5.144-10.143-2.071-4.31-3.63-8.888-9.466-9.81-1.323-.209-2.126-2.81-3.486-3.922-1.692-1.386-3.696-3.223-5.597-3.26-1.528-.029-3.19 2.242-4.628 3.658-1.182 1.164-.923 4.681-4.117 1.615 2.023-3.217 4.297-5.624 6.103-8.343 4.065-6.12 7.899-12.393 11.827-18.604"/><path fill="#03C5FE" d="M327.264 287.845c-.621.072-1.126.084-1.232-.116-2.273-4.293-.636-13.596 2.879-16.774.449-.405.74-.984.416-.54-3.61-5.694-6.867-10.8-10.09-15.926-3.79-6.032-7.628-12.037-11.281-18.151-1.255-2.101-2.084-4.47-2.979-6.767-.477-1.225-.553-2.606-1.03-3.832-1.306-3.36-2.284-6.964-4.21-9.94-2.727-4.212-6.345.294-9.68-.047-2.682-.274-3.063-.932-3.148-3.8 1.051-6.52 2.153-12.237 3.254-17.954 2.246.472 5.47.158 6.581 1.54 8.11 10.1 17.84 19.059 21.07 32.57 1.285 5.372 5.404 10.025 7.914 15.16 1.424 2.912 2.711 6.072 3.124 9.242.38 2.92 1.528 4.063 4.204 4.493 3.085.495 6.13 1.243 9.842 1.93 1.005.06 1.358.071 1.712.081-.299.342-.597.683-1.457 1.054-.961.375-1.36.72-1.758 1.066l1.428.86c-5.086 8.563-10.172 17.127-15.56 25.85"/><path fill="#50C0FE" d="M359.412 203.803c-.346-1.143-.42-2.548-.52-4.375.012-9.836.05-19.25.165-29.144.59 1.058 1.563 2.605 1.535 4.133a701 701 0 0 1-1.18 29.386"/><path fill="#048AFD" d="M20.685 170.187c.264.436.309 1.23.399 2.422.018 7.76-.01 15.125-.029 23.19.01.701.047 1.166.047 1.166-.04 2.407-.081 4.814-.15 7.67-2.296-11.035-1.65-22.56-.267-34.448"/><path fill="#0495FE" d="M27 148c-1.098 2.294-2.196 4.589-3.647 6.94.15-2.808.654-5.675 1.431-8.508.921.545 1.569 1.056 2.216 1.568"/><path fill="#02D7FF" d="M357.328 215.876c.174-3.686.557-7.696 1.316-11.76-.118 3.777-.613 7.606-1.316 11.76M355.174 227.58c-.186-1.071-.183-2.418-.185-4.172.408-.723.823-1.04 1.51-1.384-.197 1.742-.667 3.51-1.325 5.556M353.228 234.644c.149-1.32.51-2.894 1.221-4.553-.103 1.376-.556 2.838-1.22 4.553M351.854 237.33c.145-.332.568-.331.78-.33-.293 1.433-.798 2.865-1.475 4.573.068-1.12.31-2.516.695-4.243"/><path fill="#0495FE" d="M26.681 139.102c.249.54.29 1.324.343 2.502-.358 1.036-.728 1.679-1.475 2.424.057-1.493.49-3.087 1.132-4.926"/><path fill="#0197FE" d="M26.992 147.61c-.64-.122-1.287-.633-1.98-1.489-.045-.344.17-.762.176-.875a9.6 9.6 0 0 1 1.804 2.363"/><path fill="#02B2FF" d="M291.3 323.914c.173-.58.659-1.193 1.47-1.807-.17.59-.665 1.183-1.47 1.807"/><path fill="#01C9FF" d="M342.972 261.701c-.625.006-1.101-.28-1.577-.567.398-.346.797-.691 1.499-1.03.278.44.253.873.078 1.597"/><path fill="#048AFD" d="M77.017 314.372c.572.134 1.224.55 1.899 1.29-.591-.12-1.206-.564-1.9-1.29M79.1 316.324c.544.09 1.166.443 1.843 1.084-.551-.08-1.159-.45-1.843-1.084"/><path fill="#02B2FF" d="M293.365 322.094c.115-.341.53-.695 1.235-1.078-.119.336-.526.7-1.235 1.078"/><path fill="#02CBFE" d="M344.716 258.771c-.46.233-.813.223-1.43.184.156-.323.573-.617 1.26-.934.271.154.274.33.17.75"/><path fill="#02B2FF" d="M295.255 320.704q-.116-.315.594-.594.094.292-.594.594"/><path fill="#0291FE" d="M121.954 335.605c-.241-.396-.24-.79-.21-1.181.002-.011.307.001.47.003-.004.393-.008.787-.26 1.178"/><path fill="#048AFD" d="M85.61 316.535c.448.116.724.399.978.7.006.007-.22.212-.339.325-.272-.286-.544-.57-.64-1.025"/><path fill="#0291FE" d="M21.25 196.88c-.148.085-.186-.38-.163-.61.172-.077.338.066.458.241.029.041-.095.188-.296.37"/><path fill="#D1E9FD" d="M97.1 223.77a41343 41343 0 0 1-6.19-27.336c.114-18.056.688-35.616 9.158-52.246.627-.567.714-.823.617-1.142.077-.168.154-.335.25-.777 7.064-9.564 14.118-18.845 21.143-28.148.778-1.032 1.39-2.188 2.171-3.641.394-.349.619-.478 1.12-1.04 1.156-.658 1.956-1.022 2.757-1.386 2.781-1.614 5.55-3.251 8.348-4.835a974 974 0 0 1 13.167-7.31c7.08-2.165 13.913-3.917 20.504-6.331 4.007-1.468 7.679-3.7 12.746-1.698.818.105.981.174 1.048.605-5.058 1.882-10.297 2.828-14.924 5.049-8.425 4.043-16.702 8.495-24.644 13.417-9.208 5.707-16.448 13.764-22.822 22.39-7.384 9.994-12.344 21.32-15.24 33.394-1.573 6.553-2.82 13.297-3.165 20.01-.708 13.811 1.72 27.17 6.837 40.134 4.224 10.703 9.728 20.515 17.452 29.008 5.036 5.537 5.188 5.426 1.444 12.092-.728 1.295-1.75 2.425-2.49 3.715-3.481 6.068-6.912 12.165-10.823 18.31-3.526.056-6.606.227-9.645-.046-1.058-.095-2.016-1.29-3.02-1.984.336-.467.671-.934 1.134-1.662 1.749-2.655 3.37-5.05 5.336-7.969 2.097-3.218 3.839-5.92 5.605-8.604 4.833-7.344 4.835-7.34-.9-14.31a18 18 0 0 1-1.166-1.593c-4.577-6.978-9.145-13.96-13.716-20.942 0 0-.015-.484-.132-1.03-.732-1.727-1.346-2.91-1.96-4.093"/><path fill="#0495FE" d="M98.895 229.106c4.868 6.77 9.436 13.752 14.013 20.73.36.55.748 1.085 1.166 1.592 5.735 6.971 5.733 6.967.9 14.311-1.766 2.685-3.508 5.386-5.563 8.262.325-3.407-1.19-7.931 4.368-9.691-4.608-10.724-8.502-21.73-16.15-32.153.056-.167.513-1.503 1.266-3.051M97.056 224.08c.658.874 1.272 2.057 1.876 3.58-.656-.427-1.303-1.193-1.982-2.305 0-.554.03-.76.106-1.275"/><path fill="#50C0FE" d="M102.59 284.204c1.313.463 2.271 1.659 3.329 1.754 3.04.273 6.119.102 10.11.087 14.37-.01 27.814-.03 41.258.018 12.935.046 25.87.162 38.805.247-1.342.563-2.67 1.563-4.031 1.613-5.38.196-10.772.094-16.633.097-1.555-.289-2.637-.571-4.072-.765-21.812-.002-43.27-.056-64.729-.25-1.657-.016-4.888 1.584-4.037-2.801"/><path fill="#0192FF" d="M28.797 170.808c-.561.245-1.061.192-1.561.138l.341-1.346c.427.303.854.607 1.22 1.208"/><path fill="#0197FE" d="M42.981 108.596c-.196-.816-.07-1.58.056-2.344l1.31.263c-.347.712-.696 1.423-1.366 2.081"/><path fill="#02A7FE" d="M100.532 143.15c.25.215.163.471-.323.697-.143-.211-.015-.42.323-.697"/><path fill="#FEFEFE" d="M196.506 286.22c-13.349.005-26.284-.111-39.219-.157-13.444-.048-26.887-.027-40.796-.077 2.984-6.127 6.415-12.224 9.897-18.292.74-1.29 1.761-2.42 2.49-3.715 3.743-6.666 3.59-6.555-1.445-12.092-7.724-8.493-13.228-18.305-17.452-29.008-5.117-12.964-7.545-26.323-6.837-40.135.344-6.712 1.592-13.456 3.165-20.009 2.896-12.073 7.856-23.4 15.24-33.393 6.374-8.627 13.614-16.684 22.822-22.391 7.942-4.922 16.219-9.374 24.644-13.417 4.627-2.221 9.866-3.167 15.383-5.126 5.56-.478 10.566-.518 15.572-.559.795.075 1.59.149 3.106.309 3.445.62 6.17 1.153 8.896 1.687 7.138 2.098 14.275 4.195 22.002 6.311 1.144.623 1.698 1.228 2.352 2.134.96.755 1.82 1.21 2.913 1.914a6569 6569 0 0 0 24.769 19.772c5.725 8.478 12.132 16.59 16.942 25.558 3.336 6.22 4.477 13.617 6.591 20.491.591 1.92 1.158 3.847 2.047 5.906.353 7.139.396 14.142.507 21.606-1.033 6.178-2.135 11.896-3.214 18.023-1.99 5.75-4.004 11.088-6.034 16.797-3.944 6.58-7.778 12.854-11.843 18.973-1.806 2.719-4.08 5.126-6.187 8.02-2.268 2.21-4.49 4.079-6.756 6.294-9.903 8.11-20.415 14.733-32.562 19.107-4.013 1.274-7.837 2.267-12.451 3.283-3.545.656-6.3 1.289-9.056 1.92-1.691.06-3.382.118-5.486.266m-6.133-113.905c-1.896.49-3.846.827-5.676 1.496-7.737 2.828-11.013 10.463-8.014 18.465 2.821 7.528 10.597 11.078 18.06 8.245 8.089-3.07 11.501-10.516 8.886-18.215-2.098-6.179-6.72-8.635-13.256-9.99m-33.1 3.87c-4.904-4.204-10.26-4.98-16.136-2.207-6.674 3.15-9.824 11.192-6.999 17.99 3.291 7.918 10.541 11.476 17.903 8.786 10.66-3.895 13.282-14.81 5.232-24.568m75.173-3.944c-1.9.503-3.873.825-5.688 1.542-6.78 2.68-10.171 9.742-8.336 17.08 1.58 6.322 8.692 11.517 14.848 10.847 7.427-.809 13.433-6.958 13.663-13.991.264-8.086-4.135-13.04-14.487-15.478"/><path fill="#02C9FE" d="M236.226 97.989c-.554-.605-1.108-1.21-1.942-1.942.516-.78 1.248-1.538 2.122-2.06 1.693-1.009 3.873-1.527 5.093-2.915 1.272-1.445 2.305-3.72 2.185-5.55-.078-1.2-2.275-3.026-3.72-3.237-5.626-.825-8.193-3.894-8.96-9.394-.317-2.276-1.744-4.6-3.207-6.48-6.166-7.921-13.5-15.121-18.491-23.7-3.323-5.711-7.363-10.222-11.21-13.763l.559-10.895c.492 0 2.02 0 3.953.05 3.817 2.497 7.229 4.944 10.754 7.473 3.987 5.392 8.34 11.21 12.597 17.096.853 1.178 1.202 2.716 2.037 3.91 1.353 1.939 2.863 3.776 4.401 5.575 2.891 3.38 6.537 6.328 8.61 10.14 2.728 5.017 4.214 10.705 6.304 16.076.348.894.885 2.133 1.622 2.39 4.642 1.613 4.31 5.36 4.043 9.025-.355 4.856.415 9.034 5.687 10.684.004 4.399-2.054 9.772 5.732 9.026 1.094-.105 2.398 1.978 3.646 3.086-1.464 2.473-2.715 4.585-3.999 7.044-8.213-6.159-16.392-12.666-24.853-19.75-1.175-1.014-2.069-1.452-2.963-1.89M217.835 23.76c1.051-.53 1.881-.79 2.71-1.05v4.834l-1.811.3c-.374-1.27-.748-2.542-.9-4.084"/><path fill="#50C0FE" d="M202.434 286.034c2.313-.711 5.069-1.344 8.226-1.927.362.418.323.788.271 1.432-2.693.375-5.374.475-8.497.495"/><path fill="#02A7FE" d="M127.757 108.04c-.432.378-1.232.742-2.364 1.198.444-.342 1.22-.777 2.364-1.198"/><path fill="#0BBBFD" d="M199.696 87.593c-4.732.297-9.738.337-15.202.454-.622.007-.785-.062-1.196-.222.312-.521.873-.952 1.571-1.613 4.942.221 9.747.673 14.827 1.381M211.856 89.611c-2.61-.3-5.335-.834-8.384-1.51 2.003-.132 4.33-.12 7.095-.105.685.463.93.922 1.29 1.615"/><path fill="#0CB2FC" d="M190.768 172.332c6.142 1.339 10.763 3.795 12.861 9.974 2.615 7.699-.797 15.145-8.886 18.215-7.463 2.833-15.239-.717-18.06-8.245-2.999-8.002.277-15.637 8.014-18.465 1.83-.669 3.78-1.006 6.071-1.48"/><path fill="#0BA9FC" d="M157.55 176.43c7.773 9.514 5.152 20.43-5.509 24.325-7.362 2.69-14.612-.868-17.903-8.786-2.825-6.798.325-14.84 7-17.99 5.874-2.772 11.23-1.997 16.411 2.45"/><path fill="#0BBBFD" d="M232.844 172.275c9.954 2.406 14.353 7.36 14.089 15.446-.23 7.033-6.236 13.182-13.663 13.99-6.156.671-13.267-4.524-14.848-10.847-1.835-7.337 1.557-14.399 8.336-17.079 1.815-.717 3.788-1.039 6.086-1.51"/><path fill="#03C5FE" d="M236.326 98.29c.794.136 1.688.574 2.631 1.338-.81-.129-1.67-.583-2.63-1.338"/></svg>